<svg width="348" height="349" viewBox="0 0 348 349" fill="none" xmlns="http://www.w3.org/2000/svg">
<path d="M193.534 277.148C173.29 295.443 151.208 311.163 127.286 324.301C120.882 328.051 114.254 331.528 107.41 334.725C104.335 333.454 101.302 332.093 98.3063 330.648C95.3109 329.2 92.361 327.668 89.4528 326.053C86.5446 324.438 83.6857 322.739 80.876 320.961C78.0664 319.183 75.3099 317.325 72.6064 315.387C69.903 313.45 67.2564 311.436 64.6705 309.347C62.0845 307.258 59.5555 305.096 57.0947 302.863C54.6301 300.63 52.2338 298.328 49.9019 295.959C47.57 293.589 45.3064 291.151 43.1148 288.652C40.9232 286.153 38.8037 283.59 36.76 280.97C34.7163 278.346 32.7484 275.669 30.8564 272.936C28.9643 270.202 27.1557 267.415 25.4229 264.575C23.6901 261.739 22.0445 258.853 20.4786 255.922C18.9126 252.988 17.4339 250.015 16.0385 246.997C14.6432 243.979 13.3351 240.926 12.1142 237.832C10.897 234.742 9.76711 231.618 8.72441 228.459C7.68549 225.301 6.73757 222.12 5.88066 218.908C12.8346 223.208 20.1222 227.345 27.4097 231.151C40.1649 238.048 53.2689 244.206 66.7217 249.624C80.1746 255.043 93.8852 259.684 107.865 263.555C121.841 267.426 135.992 270.497 150.317 272.769C164.642 275.04 179.046 276.5 193.534 277.148ZM94.1582 242.401C87.519 229.635 81.6116 216.538 76.436 203.112C71.2604 189.69 66.8469 176.017 63.1955 162.101C59.5479 148.182 56.6814 134.107 54.6036 119.87C52.5257 105.632 51.2442 91.3261 50.7664 76.9481C50.7664 68.6747 50.7664 60.4013 50.7664 52.2947C46.7738 56.2949 42.9859 60.4809 39.4028 64.8489C35.8234 69.2207 32.4602 73.7517 29.3207 78.4496C26.185 83.1475 23.2806 87.9856 20.6151 92.9679C17.9495 97.9463 15.5304 103.046 13.3616 108.263C11.1966 113.477 9.28557 118.789 7.6362 124.188C5.98682 129.592 4.60666 135.063 3.49191 140.599C2.37716 146.135 1.53541 151.716 0.966656 157.335C0.394114 162.954 0.102157 168.585 0.0831988 174.235C0.0718236 181.769 0.568532 189.269 1.57332 196.738C7.75753 200.928 14.0517 204.898 20.4558 208.648C43.7822 222.73 68.4052 233.98 94.3251 242.401H94.1582ZM196.681 18.7081C203.806 14.4045 211.093 10.1048 218.544 6.29796C215.348 5.45242 212.132 4.69788 208.89 4.03433C205.652 3.37079 202.395 2.80204 199.123 2.32429C195.851 1.85033 192.567 1.46738 189.272 1.17921C185.981 0.887249 182.678 0.693875 179.376 0.5915C176.07 0.492916 172.763 0.485333 169.457 0.572542C166.151 0.65975 162.852 0.84175 159.557 1.11854C156.262 1.39533 152.975 1.76692 149.702 2.2295C146.426 2.69208 143.169 3.24946 139.927 3.90163C136.686 4.55 133.463 5.29317 130.262 6.12733C127.066 6.9615 123.892 7.88288 120.745 8.89904C117.598 9.91521 114.482 11.0186 111.399 12.213C108.313 13.4035 105.268 14.6851 102.257 16.0501C99.2467 17.4189 96.2778 18.8673 93.3506 20.4068C90.4235 21.9424 87.5418 23.5614 84.7056 25.2601C81.8695 26.9625 79.0864 28.7408 76.3526 30.6025C73.6226 32.4605 70.9419 34.398 68.3218 36.4114C68.3218 43.8582 67.3284 51.3013 67.1616 58.7481C66.7862 85.9457 69.3797 112.863 74.9459 139.488C82.6809 127.317 91.068 115.612 100.111 104.377C109.154 93.1385 118.796 82.4422 129.038 72.2805C139.275 62.1227 150.051 52.5639 161.362 43.608C172.672 34.6483 184.445 26.3483 196.681 18.7081ZM320.407 116.325C327.695 120.131 334.982 124.268 341.94 128.568C341.079 125.356 340.131 122.175 339.092 119.017C338.053 115.862 336.923 112.738 335.703 109.644C334.482 106.553 333.177 103.497 331.782 100.479C330.387 97.461 328.904 94.4883 327.342 91.5536C325.776 88.6226 324.127 85.7372 322.394 82.901C320.665 80.061 318.852 77.2742 316.96 74.5404C315.072 71.8066 313.104 69.1297 311.057 66.5058C309.013 63.8858 306.893 61.3264 304.702 58.8239C302.51 56.3252 300.25 53.8872 297.919 51.5174C295.587 49.1476 293.187 46.846 290.726 44.6128C288.261 42.3795 285.736 40.2182 283.146 38.129C280.56 36.0398 277.914 34.0264 275.21 32.0889C272.507 30.1513 269.75 28.2934 266.941 26.5151C264.131 24.7368 261.272 23.0382 258.364 21.4229C255.46 19.8077 252.506 18.2758 249.51 16.8312C246.515 15.3828 243.482 14.0254 240.407 12.7514C233.563 15.9515 226.939 19.4247 220.535 23.1747C196.632 36.3469 174.549 52.0634 154.283 70.3278C168.771 70.9762 183.179 72.436 197.504 74.7072C211.825 76.9822 225.976 80.0535 239.955 83.921C253.932 87.7923 267.646 92.437 281.095 97.8553C294.548 103.27 307.652 109.428 320.407 116.325ZM297.054 296.838C301.073 292.819 304.884 288.618 308.49 284.227C312.092 279.836 315.474 275.279 318.632 270.558C321.791 265.838 324.707 260.973 327.387 255.964C330.068 250.955 332.495 245.829 334.671 240.581C336.848 235.337 338.759 229.995 340.412 224.561C342.061 219.128 343.441 213.626 344.552 208.06C345.663 202.49 346.497 196.879 347.059 191.229C347.616 185.579 347.897 179.915 347.9 174.235C347.912 166.701 347.415 159.201 346.41 151.731C340.226 147.651 333.932 143.681 327.528 139.822C304.171 125.971 279.548 114.937 253.658 106.728C260.298 119.498 266.205 132.595 271.381 146.017C276.556 159.443 280.97 173.116 284.621 187.032C288.273 200.947 291.135 215.025 293.213 229.263C295.291 243.497 296.573 257.807 297.054 272.185C298.214 280.458 298.214 288.728 297.054 296.838ZM151.302 329.928C144.178 334.228 136.89 338.531 129.44 342.338C132.636 343.184 135.851 343.938 139.093 344.598C142.331 345.262 145.588 345.83 148.861 346.308C152.133 346.786 155.416 347.169 158.711 347.457C162.003 347.745 165.305 347.942 168.608 348.041C171.914 348.143 175.22 348.151 178.527 348.064C181.833 347.973 185.132 347.791 188.427 347.514C191.722 347.241 195.009 346.869 198.281 346.407C201.557 345.94 204.814 345.383 208.056 344.735C211.298 344.086 214.521 343.343 217.721 342.509C220.917 341.675 224.091 340.75 227.238 339.737C230.385 338.721 233.502 337.618 236.585 336.423C239.671 335.233 242.716 333.951 245.726 332.582C248.737 331.217 251.706 329.765 254.633 328.229C257.56 326.694 260.442 325.075 263.278 323.372C266.114 321.674 268.897 319.892 271.631 318.034C274.361 316.172 277.042 314.238 279.662 312.225C279.662 304.778 280.655 297.331 280.822 289.888C281.197 262.687 278.604 235.773 273.038 209.145C265.299 221.304 256.908 232.994 247.861 244.214C238.814 255.437 229.172 266.122 218.934 276.265C208.693 286.411 197.921 295.955 186.61 304.899C175.304 313.844 163.534 322.132 151.302 329.761V329.928Z" fill="white"/>
</svg>
