<svg width="364" height="364" viewBox="0 0 364 364" fill="none" xmlns="http://www.w3.org/2000/svg">
<mask id="mask0_162_1317" style="mask-type:luminance" maskUnits="userSpaceOnUse" x="8" y="7" width="349" height="350">
<path d="M8.19043 7.76532H356.174V356.235H8.19043V7.76532Z" fill="white"/>
</mask>
<g mask="url(#mask0_162_1317)">
<path d="M201.724 284.913C181.481 303.208 159.398 318.928 135.476 332.067C129.072 335.817 122.445 339.294 115.601 342.49C112.526 341.22 109.492 339.858 106.497 338.414C103.501 336.965 100.551 335.434 97.6432 333.818C94.735 332.203 91.8761 330.504 89.0665 328.726C86.2568 326.948 83.5003 325.09 80.7968 323.152C78.0934 321.215 75.4468 319.201 72.8609 317.112C70.275 315.023 67.7459 312.862 65.2851 310.629C62.8205 308.395 60.4242 306.094 58.0923 303.724C55.7605 301.354 53.4968 298.916 51.3053 296.417C49.1137 293.919 46.9941 291.355 44.9504 288.735C42.9067 286.112 40.9388 283.435 39.0468 280.701C37.1548 277.967 35.3461 275.18 33.6133 272.34C31.8805 269.504 30.235 266.619 28.669 263.688C27.103 260.753 25.6243 257.78 24.229 254.762C22.8336 251.744 21.5255 248.692 20.3046 245.598C19.0875 242.507 17.9575 239.383 16.9148 236.225C15.8759 233.066 14.928 229.885 14.0711 226.673C21.025 230.973 28.3126 235.11 35.6002 238.917C48.3553 245.814 61.4593 251.971 74.9122 257.39C88.365 262.808 102.076 267.449 116.056 271.32C130.032 275.192 144.182 278.263 158.507 280.534C172.832 282.805 187.237 284.265 201.724 284.913ZM102.349 250.167C95.7095 237.4 89.802 224.304 84.6264 210.877C79.4508 197.455 75.0373 183.782 71.3859 169.867C67.7383 155.947 64.8718 141.873 62.794 127.635C60.7162 113.397 59.4346 99.0914 58.9568 84.7134C58.9568 76.44 58.9568 68.1666 58.9568 60.06C54.9642 64.0602 51.1763 68.2462 47.5932 72.6142C44.0139 76.986 40.6507 81.5171 37.5112 86.2149C34.3755 90.9128 31.471 95.751 28.8055 100.733C26.14 105.712 23.7209 110.811 21.552 116.029C19.387 121.242 17.476 126.554 15.8266 131.954C14.1773 137.357 12.7971 142.828 11.6823 148.364C10.5676 153.9 9.72584 159.481 9.15709 165.101C8.58454 170.72 8.29259 176.35 8.27363 182C8.26225 189.534 8.75896 197.034 9.76375 204.504C15.948 208.693 22.2421 212.663 28.6463 216.413C51.9726 230.495 76.5957 241.745 102.516 250.167H102.349ZM204.872 26.4734C211.996 22.1699 219.284 17.8701 226.734 14.0633C223.538 13.2178 220.323 12.4632 217.081 11.7997C213.843 11.1361 210.586 10.5674 207.313 10.0896C204.041 9.61568 200.758 9.23273 197.463 8.94456C194.171 8.6526 190.869 8.45923 187.566 8.35685C184.26 8.25827 180.954 8.25068 177.647 8.33789C174.341 8.4251 171.042 8.6071 167.747 8.88389C164.452 9.16068 161.165 9.53227 157.893 9.99485C154.617 10.4574 151.36 11.0148 148.118 11.667C144.876 12.3154 141.653 13.0585 138.453 13.8927C135.257 14.7269 132.083 15.6482 128.936 16.6644C125.789 17.6806 122.672 18.7839 119.589 19.9783C116.503 21.1689 113.458 22.4505 110.448 23.8155C107.437 25.1843 104.468 26.6327 101.541 28.1721C98.6139 29.7077 95.7322 31.3268 92.896 33.0254C90.0599 34.7279 87.2768 36.5062 84.543 38.3679C81.813 40.2258 79.1323 42.1634 76.5123 44.1767C76.5123 51.6236 75.5188 59.0666 75.352 66.5134C74.9766 93.7111 77.5701 120.628 83.1363 147.253C90.8713 135.082 99.2585 123.377 108.302 112.142C117.345 100.904 126.987 90.2076 137.228 80.0459C147.466 69.888 158.242 60.3292 169.552 51.3733C180.863 42.4136 192.636 34.1136 204.872 26.4734ZM328.597 124.09C335.885 127.897 343.173 132.033 350.13 136.333C349.27 133.122 348.322 129.94 347.283 126.782C346.244 123.627 345.114 120.503 343.893 117.409C342.672 114.319 341.368 111.263 339.972 108.245C338.577 105.226 337.095 102.254 335.532 99.3189C333.966 96.388 332.317 93.5025 330.584 90.6664C328.855 87.8264 327.043 85.0395 325.151 82.3057C323.263 79.5719 321.295 76.895 319.247 74.2712C317.203 71.6511 315.084 69.0918 312.892 66.5893C310.701 64.0906 308.441 61.6525 306.109 59.2827C303.777 56.9129 301.377 54.6114 298.916 52.3781C296.452 50.1448 293.926 47.9836 291.337 45.8944C288.751 43.8051 286.104 41.7918 283.401 39.8542C280.697 37.9167 277.941 36.0588 275.131 34.2805C272.322 32.5022 269.463 30.8035 266.554 29.1883C263.65 27.573 260.696 26.0412 257.701 24.5966C254.705 23.1481 251.672 21.7907 248.597 20.5167C241.753 23.7169 235.129 27.1901 228.725 30.94C204.822 44.1123 182.74 59.8287 162.473 78.0932C176.961 78.7416 191.369 80.2014 205.694 82.4726C220.015 84.7476 234.166 87.8188 248.146 91.6863C262.122 95.5576 275.836 100.202 289.285 105.621C302.738 111.035 315.842 117.193 328.597 124.09ZM305.245 304.604C309.264 300.584 313.074 296.383 316.68 291.992C320.282 287.602 323.664 283.044 326.823 278.324C329.981 273.603 332.897 268.738 335.578 263.729C338.259 258.721 340.685 253.594 342.862 248.347C345.038 243.103 346.949 237.76 348.602 232.327C350.252 226.893 351.632 221.392 352.743 215.825C353.854 210.256 354.688 204.644 355.249 198.994C355.806 193.345 356.087 187.68 356.091 182C356.102 174.466 355.605 166.966 354.601 159.496C348.416 155.417 342.122 151.447 335.718 147.587C312.362 133.736 287.738 122.702 261.849 114.493C268.488 127.264 274.396 140.36 279.571 153.782C284.747 167.209 289.16 180.881 292.812 194.797C296.463 208.712 299.326 222.791 301.404 237.028C303.481 251.262 304.763 265.572 305.245 279.95C306.405 288.224 306.405 296.493 305.245 304.604ZM159.493 337.693C152.368 341.993 145.081 346.297 137.63 350.104C140.827 350.949 144.042 351.704 147.284 352.363C150.522 353.027 153.779 353.596 157.051 354.073C160.323 354.551 163.607 354.934 166.902 355.222C170.193 355.51 173.496 355.708 176.798 355.806C180.104 355.909 183.411 355.916 186.717 355.829C190.023 355.738 193.322 355.556 196.617 355.279C199.912 355.006 203.199 354.635 206.472 354.172C209.748 353.706 213.005 353.148 216.247 352.5C219.488 351.852 222.711 351.108 225.912 350.274C229.108 349.44 232.282 348.515 235.429 347.503C238.576 346.486 241.692 345.383 244.775 344.189C247.861 342.998 250.906 341.716 253.917 340.348C256.927 338.983 259.896 337.53 262.823 335.995C265.751 334.459 268.632 332.84 271.468 331.138C274.305 329.439 277.088 327.657 279.821 325.799C282.551 323.937 285.232 322.004 287.852 319.99C287.852 312.543 288.846 305.096 289.012 297.653C289.388 270.452 286.794 243.539 281.228 216.91C273.489 229.07 265.098 240.759 256.051 251.979C247.005 263.202 237.362 273.887 227.125 284.03C216.884 294.176 206.111 303.72 194.801 312.665C183.494 321.609 171.725 329.898 159.493 337.527V337.693Z" fill="black"/>
</g>
</svg>
