<svg width="135" height="136" viewBox="0 0 135 136" fill="none" xmlns="http://www.w3.org/2000/svg">
<path d="M75.0836 107.778C67.2314 114.849 58.6614 120.924 49.3808 126.002C46.896 127.452 44.3264 128.793 41.6722 130.032C39.2831 129.046 36.9639 127.929 34.7036 126.679C32.4469 125.43 30.2676 124.056 28.1693 122.558C26.071 121.059 24.0647 119.443 22.1504 117.718C20.2361 115.988 18.4286 114.156 16.7279 112.222C15.0271 110.288 13.4405 108.265 11.9717 106.147C10.5028 104.033 9.16283 101.842 7.94433 99.5709C6.72951 97.303 5.64721 94.9728 4.70112 92.5804C3.75503 90.1879 2.94883 87.7515 2.28252 85.2675C4.9809 86.9308 7.80812 88.5282 10.6353 89.9974C20.5638 95.3466 30.9671 99.5233 41.8489 102.524C52.7271 105.525 63.8041 107.276 75.0836 107.778ZM36.5295 94.3463C31.3647 84.4468 27.3594 74.1002 24.5175 63.3103C21.6792 52.5168 20.0705 41.5474 19.695 30.3985C19.695 27.2 19.695 24.0015 19.695 20.869C16.5917 23.9685 13.8197 27.3392 11.379 30.9774C8.93459 34.6192 6.87308 38.4588 5.18705 42.5C3.50102 46.5412 2.22362 50.7106 1.35484 55.0009C0.489733 59.2912 0.0479794 63.6218 0.0332543 68C0.0295732 70.9127 0.224681 73.8108 0.611215 76.6979C3.01141 78.3172 5.4521 79.8524 7.93697 81.3032C16.9856 86.744 26.5385 91.0929 36.5958 94.3463H36.5295ZM76.3057 7.88815C79.0667 6.22479 81.8939 4.56143 84.7874 3.09225C82.3026 2.43643 79.7919 1.9235 77.2518 1.55712C74.7118 1.18708 72.1569 0.963586 69.5911 0.886646C67.0216 0.806043 64.4594 0.875655 61.9009 1.08815C59.3424 1.30432 56.8023 1.65971 54.288 2.16531C51.77 2.66725 49.2888 3.31208 46.8444 4.09613C44.4001 4.88018 42.0109 5.80346 39.6733 6.85863C37.3357 7.91746 35.0643 9.10453 32.8629 10.4198C30.6615 11.7351 28.5448 13.1713 26.5054 14.7285C26.5054 17.6082 26.1225 20.4843 26.0562 23.364C25.9127 33.8754 26.9177 44.2769 29.0786 54.5722C35.0975 45.1306 42.0919 36.4731 50.0619 28.5922C58.0319 20.7151 66.7786 13.8125 76.3057 7.88815ZM124.302 45.6179C127.13 47.0871 129.957 48.6882 132.655 50.3515C131.989 47.8638 131.183 45.4274 130.237 43.0349C129.29 40.6425 128.208 38.3123 126.993 36.0444C125.779 33.7765 124.435 31.5819 122.966 29.4679C121.497 27.3539 119.914 25.3278 118.21 23.3933C116.509 21.4588 114.702 19.6269 112.787 17.9013C110.877 16.172 108.87 14.5599 106.768 13.0614C104.67 11.5593 102.491 10.1854 100.234 8.936C97.9775 7.68664 95.6546 6.56919 93.2691 5.58363C90.6112 6.82199 88.0417 8.16294 85.5568 9.6138C76.2837 14.7028 67.7173 20.781 59.8541 27.8412C71.1335 28.3394 82.2105 30.0907 93.0924 33.0914C103.971 36.0957 114.374 40.2688 124.302 45.6179ZM115.243 115.388C118.368 112.273 121.159 108.888 123.614 105.231C126.069 101.571 128.146 97.7097 129.835 93.6429C131.529 89.5797 132.806 85.3884 133.671 81.0724C134.533 76.7565 134.967 72.4002 134.971 68C134.974 65.0873 134.779 62.1892 134.393 59.3022C131.993 57.7267 129.552 56.1916 127.067 54.6968C118.004 49.344 108.451 45.083 98.4082 41.9101C103.577 51.8097 107.578 62.1563 110.42 72.9461C113.262 83.7397 114.867 94.7091 115.243 105.858C115.692 109.056 115.692 112.255 115.243 115.388ZM58.6982 128.178C55.9372 129.841 53.11 131.501 50.2165 132.974C52.6977 133.63 55.212 134.139 57.7521 134.509C60.2922 134.879 62.847 135.099 65.4128 135.179C67.9787 135.256 70.5445 135.19 73.103 134.974C75.6615 134.762 78.1979 134.403 80.7159 133.901C83.2339 133.399 85.7151 132.754 88.1595 131.966C90.6038 131.182 92.993 130.263 95.3306 129.204C97.6682 128.145 99.9396 126.958 102.141 125.642C104.342 124.327 106.459 122.891 108.495 121.334C108.495 118.458 108.881 115.578 108.948 112.702C109.091 102.187 108.086 91.7853 105.925 81.4938C99.9028 90.9207 92.9046 99.5672 84.9347 107.437C76.9647 115.303 68.2216 122.195 58.6982 128.112V128.178Z" fill="#D7282F"/>
</svg>
