<svg width="364" height="364" viewBox="0 0 364 364" fill="none" xmlns="http://www.w3.org/2000/svg">
<path d="M12.62 139.51C15.714 137.52 19.0279 135.961 22.5693 134.839C26.1183 133.717 29.5839 133.156 32.9736 133.156C33.3983 133.156 33.8685 133.171 34.3841 133.201C34.8998 133.231 35.643 133.277 36.6136 133.338L22.6148 198.585C24.0101 198.888 25.504 199.388 27.1041 200.086C28.7118 200.784 31.1536 202.012 34.4296 203.772C39.3323 206.429 43.0898 208.185 45.6985 209.034C48.3071 209.884 50.7869 210.308 53.1453 210.308C54.5406 210.308 55.8601 210.187 57.1038 209.944C58.3475 209.702 59.576 209.338 60.7893 208.852C60.304 213.22 59.212 216.686 57.5133 219.257C55.8146 221.835 53.7558 223.124 51.3405 223.124C49.1565 223.124 46.836 222.533 44.379 221.35C41.922 220.167 38.2099 217.607 33.2466 213.675C27.5515 209.065 23.1305 206.047 19.9758 204.621C16.8287 203.203 13.7726 202.498 10.8 202.498C10.254 202.498 9.82929 202.498 9.52596 202.498C9.22263 202.498 8.94963 202.528 8.70696 202.589L22.2508 139.601C18.133 141.3 14.986 143.848 12.802 147.245C10.618 150.635 9.52596 154.692 9.52596 159.424C9.52596 160.569 9.60179 161.563 9.75346 162.412C9.90513 163.261 10.163 164.08 10.527 164.869C10.6483 165.112 10.7241 165.279 10.7545 165.37C10.7848 165.461 10.8 165.536 10.8 165.597C7.41021 165.597 4.94563 164.884 3.39863 163.459C1.85163 162.033 1.07812 159.811 1.07812 156.785C1.07812 153.752 2.08671 150.726 4.11146 147.7C6.14379 144.667 8.97996 141.937 12.62 139.51Z" fill="black"/>
<path d="M57.4198 142.877C57.4198 144.879 56.707 146.578 55.2813 147.973C53.8556 149.361 52.1456 150.051 50.155 150.051C48.153 150.051 46.4543 149.361 45.059 147.973C43.6636 146.578 42.966 144.879 42.966 142.877C42.966 140.875 43.6636 139.169 45.059 137.751C46.4543 136.325 48.153 135.612 50.155 135.612C52.1456 135.612 53.8556 136.325 55.2813 137.751C56.707 139.169 57.4198 140.875 57.4198 142.877ZM34.2451 190.046C34.2451 189.257 34.3058 188.362 34.4271 187.361C34.5485 186.36 34.7305 185.283 34.9731 184.131L41.146 154.965H54.2348L47.698 185.86C47.5766 186.406 47.4856 186.906 47.425 187.361C47.3643 187.816 47.334 188.286 47.334 188.772C47.334 189.985 47.6221 190.849 48.1985 191.365C48.7748 191.881 49.7303 192.139 51.065 192.139C52.7522 192.139 54.3561 191.395 55.8728 189.909C57.3895 188.423 58.5118 186.497 59.2398 184.131H63.0618C61.1205 189.651 58.5118 193.837 55.2358 196.689C51.9674 199.532 48.2136 200.95 43.967 200.95C40.9412 200.95 38.5676 199.995 36.8386 198.084C35.1096 196.173 34.2451 193.496 34.2451 190.046Z" fill="black"/>
<path d="M88.7652 159.151V159.697L89.7662 154.965H102.855L93.8612 197.128C96.8946 196.036 99.2682 194.512 100.99 192.548C102.719 190.576 104.159 187.771 105.312 184.131H109.134C107.739 188.741 105.752 192.442 103.174 195.233C100.595 198.016 97.2169 199.98 93.0422 201.132L91.6772 207.669C90.5852 212.765 88.6742 216.61 85.9442 219.211C83.2218 221.82 79.6842 223.124 75.3276 223.124C72.2336 223.124 69.7614 222.335 67.9111 220.758C66.0607 219.181 65.1356 217.031 65.1356 214.312C65.1356 211.34 66.3641 208.716 68.8211 206.441C71.2781 204.173 74.9863 202.285 79.9534 200.768L81.0454 195.945C79.4681 197.583 77.7694 198.827 75.9494 199.676C74.137 200.526 72.2032 200.95 70.1406 200.95C66.3868 200.95 63.4369 199.684 61.2832 197.144C59.1296 194.596 58.0527 190.986 58.0527 186.315C58.0527 182.929 58.5684 179.391 59.5997 175.698C60.6311 171.997 62.0567 168.63 63.8767 165.597C66.11 162.029 68.7149 159.288 71.6876 157.377C74.6602 155.466 77.8983 154.51 81.4094 154.51C83.7754 154.51 85.5878 154.92 86.8542 155.739C88.1282 156.558 88.7652 157.695 88.7652 159.151ZM87.9462 163.504C87.8856 162.533 87.5216 161.737 86.8542 161.108C86.1945 160.471 85.3224 160.152 84.2304 160.152C80.8937 160.152 77.9362 162.939 75.3579 168.509C72.7872 174.083 71.5056 179.592 71.5056 185.041C71.5056 187.407 71.8392 189.181 72.5066 190.364C73.1739 191.547 74.3569 192.139 76.0556 192.139C77.5002 192.139 78.9372 191.471 80.3629 190.137C81.7886 188.802 82.7744 187.103 83.3204 185.041L87.9462 163.504ZM79.0434 205.318C76.0177 206.46 73.7806 207.654 72.3246 208.898C70.8686 210.141 70.1406 211.522 70.1406 213.038C70.1406 213.827 70.4439 214.525 71.0506 215.131C71.6572 215.738 72.3852 216.041 73.2346 216.041C74.2659 216.041 75.2593 215.313 76.2224 213.857C77.1931 212.401 77.9514 210.43 78.4974 207.942L79.0434 205.318Z" fill="black"/>
<path d="M127.391 190.683C127.391 189.591 127.528 188.226 127.801 186.588C128.074 184.95 128.635 182.348 129.484 178.777C130.334 175.319 130.88 172.839 131.122 171.33C131.365 169.813 131.486 168.539 131.486 167.508C131.486 165.991 131.198 164.839 130.622 164.05C130.045 163.261 129.211 162.867 128.119 162.867C126.663 162.867 125.253 163.731 123.888 165.46C122.53 167.189 121.643 168.994 121.218 170.875L114.939 200.404H101.851L115.03 138.6L128.483 136.795L123.569 159.697C125.086 157.998 126.724 156.724 128.483 155.875C130.243 155.026 132.146 154.601 134.201 154.601C137.416 154.601 139.904 155.481 141.663 157.24C143.422 158.999 144.302 161.544 144.302 164.869C144.302 166.264 144.135 167.917 143.802 169.828C143.468 171.732 142.816 174.651 141.845 178.595C141.056 181.689 140.541 183.873 140.298 185.147C140.055 186.413 139.934 187.467 139.934 188.317C139.934 189.591 140.237 190.546 140.844 191.183C141.451 191.82 142.361 192.139 143.574 192.139C145.079 192.139 146.38 191.623 147.472 190.592C148.564 189.56 149.808 187.407 151.203 184.131H155.025C153.084 189.773 150.733 193.989 147.972 196.78C145.22 199.563 141.936 200.95 138.114 200.95C134.724 200.95 132.093 200.025 130.212 198.175C128.332 196.325 127.391 193.83 127.391 190.683Z" fill="black"/>
<path d="M154.384 154.965H157.372L160.102 142.422L173.554 140.602L170.46 154.965H175.92L175.192 158.605H169.732L163.924 185.86C163.802 186.406 163.711 186.906 163.651 187.361C163.59 187.816 163.56 188.286 163.56 188.772C163.56 189.985 163.848 190.849 164.424 191.365C165 191.881 165.956 192.139 167.291 192.139C168.978 192.139 170.582 191.395 172.098 189.909C173.615 188.423 174.737 186.497 175.465 184.131H179.287C177.346 189.651 174.737 193.837 171.461 196.689C168.193 199.532 164.439 200.95 160.193 200.95C157.167 200.95 154.793 199.995 153.064 198.084C151.335 196.173 150.471 193.496 150.471 190.046C150.471 189.257 150.531 188.362 150.653 187.361C150.774 186.36 150.956 185.283 151.199 184.131L156.659 158.605H153.656L154.384 154.965Z" fill="black"/>
<path d="M189.279 148.519C189.279 143.848 191.288 139.973 195.315 136.886C199.349 133.792 204.332 132.245 210.269 132.245C214.869 132.245 218.459 133.186 221.038 135.066C223.616 136.947 224.905 139.643 224.905 143.15C224.905 145.88 224.223 148.095 222.858 149.793C221.493 151.484 219.688 152.326 217.443 152.326C216.594 152.326 215.82 152.174 215.123 151.871C214.433 151.568 213.818 151.082 213.272 150.415C214.486 149.687 215.464 148.603 216.215 147.154C216.973 145.698 217.352 144.182 217.352 142.604C217.352 140.663 216.776 139.169 215.623 138.115C214.478 137.053 212.817 136.522 210.633 136.522C208.025 136.522 205.977 137.25 204.491 138.706C203.012 140.155 202.277 142.18 202.277 144.788C202.277 146.912 202.815 148.929 203.899 150.84C204.991 152.743 207.357 155.299 210.997 158.514C215.779 162.693 218.93 166.31 220.446 169.373C221.963 172.43 222.721 175.834 222.721 179.596C222.721 186.504 220.325 192.017 215.532 196.143C210.747 200.26 204.631 202.315 197.181 202.315C191.243 202.315 186.549 200.954 183.091 198.236C179.64 195.506 177.919 191.653 177.919 186.679C177.919 182.322 179.216 178.754 181.817 175.971C184.425 173.18 187.58 171.785 191.281 171.785C193.575 171.785 195.452 172.316 196.908 173.377C198.364 174.432 199.152 175.895 199.274 177.776C196.119 177.776 193.556 178.534 191.584 180.051C189.62 181.567 188.642 183.657 188.642 186.315C188.642 188.863 189.423 190.956 190.993 192.594C192.57 194.224 194.693 195.035 197.363 195.035C200.517 195.035 203.058 193.951 204.991 191.775C206.933 189.591 207.903 186.656 207.903 182.963C207.903 180.111 207.266 177.389 205.992 174.788C204.718 172.179 202.083 168.691 198.091 164.323C194.451 160.452 192.069 157.407 190.947 155.193C189.832 152.978 189.279 150.756 189.279 148.519Z" fill="black"/>
<path d="M249.341 190.683C249.341 189.591 249.478 188.226 249.751 186.588C250.024 184.95 250.585 182.348 251.434 178.777C252.284 175.319 252.83 172.839 253.072 171.33C253.315 169.813 253.436 168.539 253.436 167.508C253.436 165.991 253.163 164.839 252.617 164.05C252.071 163.261 251.252 162.867 250.16 162.867C248.704 162.867 247.355 163.61 246.111 165.096C244.875 166.583 243.866 168.63 243.078 171.239L236.89 200.404H223.801L233.432 154.965H246.52L245.519 159.697C247.036 157.998 248.674 156.724 250.433 155.875C252.193 155.026 254.096 154.601 256.151 154.601C259.367 154.601 261.854 155.481 263.613 157.24C265.373 158.999 266.252 161.544 266.252 164.869C266.252 166.264 266.085 167.917 265.752 169.828C265.418 171.732 264.766 174.651 263.795 178.595C263.007 181.689 262.491 183.873 262.248 185.147C262.006 186.413 261.884 187.467 261.884 188.317C261.884 189.591 262.188 190.546 262.794 191.183C263.401 191.82 264.311 192.139 265.524 192.139C267.03 192.139 268.33 191.623 269.422 190.592C270.514 189.56 271.758 187.407 273.153 184.131H276.975C275.034 189.773 272.683 193.989 269.923 196.78C267.17 199.563 263.886 200.95 260.064 200.95C256.675 200.95 254.043 200.025 252.162 198.175C250.282 196.325 249.341 193.83 249.341 190.683Z" fill="black"/>
<path d="M302.679 159.151V159.788L303.68 154.965H316.769L310.232 185.86C310.111 186.406 310.02 186.906 309.959 187.361C309.899 187.816 309.868 188.286 309.868 188.772C309.868 190.106 310.172 191.092 310.778 191.729C311.385 192.366 312.318 192.685 313.584 192.685C315.161 192.685 316.587 191.941 317.861 190.455C319.135 188.969 320.166 186.861 320.955 184.131H324.762C322.828 189.712 320.318 193.913 317.224 196.734C314.138 199.548 310.566 200.95 306.501 200.95C303.893 200.95 301.815 200.222 300.268 198.766C298.728 197.31 297.841 195.255 297.598 192.594C295.718 195.377 293.64 197.462 291.365 198.857C289.098 200.253 286.663 200.95 284.055 200.95C280.301 200.95 277.351 199.684 275.197 197.144C273.044 194.596 271.967 190.986 271.967 186.315C271.967 182.929 272.482 179.391 273.514 175.698C274.545 171.997 275.971 168.63 277.791 165.597C280.024 162.029 282.629 159.288 285.602 157.377C288.574 155.466 291.812 154.51 295.323 154.51C297.689 154.51 299.502 154.92 300.768 155.739C302.042 156.558 302.679 157.695 302.679 159.151ZM301.86 163.595C301.86 162.685 301.527 161.889 300.859 161.199C300.2 160.501 299.297 160.152 298.144 160.152C294.808 160.152 291.85 162.939 289.272 168.509C286.701 174.083 285.42 179.592 285.42 185.041C285.42 187.407 285.753 189.181 286.421 190.364C287.088 191.547 288.271 192.139 289.97 192.139C291.536 192.139 293.064 191.38 294.55 189.864C296.036 188.347 297.022 186.436 297.507 184.131L301.86 163.595Z" fill="black"/>
<path d="M332.581 190.956C332.824 191.623 333.249 192.139 333.855 192.503C334.462 192.867 335.19 193.049 336.039 193.049C339.85 193.049 342.925 190.599 345.261 185.693C347.596 180.779 348.764 175.084 348.764 168.6C348.764 166.113 348.4 164.232 347.672 162.958C346.944 161.684 345.791 161.047 344.214 161.047C343.122 161.047 342 161.456 340.847 162.275C339.694 163.094 338.728 164.171 337.95 165.506L332.581 190.956ZM326.408 219.848L312.683 223.124L327.849 151.598H340.938L339.482 158.423C340.999 157.149 342.637 156.178 344.396 155.511C346.155 154.844 348.059 154.51 350.114 154.51C353.754 154.51 356.507 155.723 358.38 158.15C360.26 160.569 361.201 164.141 361.201 168.873C361.201 178.147 359.218 185.81 355.255 191.866C351.289 197.925 345.822 200.95 338.845 200.95C336.911 200.95 335.296 200.677 333.992 200.131C332.687 199.585 331.732 198.766 331.125 197.674L326.408 219.848Z" fill="black"/>
</svg>
