<svg width="364" height="364" viewBox="0 0 364 364" fill="none" xmlns="http://www.w3.org/2000/svg">
<mask id="mask0_162_1980" style="mask-type:luminance" maskUnits="userSpaceOnUse" x="11" y="112" width="135" height="136">
<path d="M11 112H146V248H11V112Z" fill="white"/>
</mask>
<g mask="url(#mask0_162_1980)">
<path d="M86.0836 219.778C78.2314 226.849 69.6614 232.923 60.3808 238.001C57.896 239.452 55.3264 240.793 52.6722 242.032C50.2831 241.046 47.9639 239.929 45.7036 238.679C43.4469 237.43 41.2676 236.056 39.1693 234.557C37.071 233.059 35.0647 231.443 33.1504 229.718C31.2361 227.988 29.4286 226.156 27.7279 224.222C26.0271 222.287 24.4405 220.265 22.9717 218.147C21.5028 216.033 20.1628 213.842 18.9443 211.571C17.7295 209.303 16.6472 206.973 15.7011 204.58C14.755 202.188 13.9488 199.751 13.2825 197.267C15.9809 198.931 18.8081 200.528 21.6353 201.997C31.5638 207.346 41.9671 211.523 52.8489 214.524C63.7271 217.525 74.8041 219.276 86.0836 219.778ZM47.5295 206.346C42.3647 196.447 38.3594 186.1 35.5175 175.31C32.6792 164.517 31.0705 153.547 30.695 142.398C30.695 139.2 30.695 136.001 30.695 132.869C27.5917 135.968 24.8197 139.339 22.379 142.977C19.9346 146.619 17.8731 150.459 16.187 154.5C14.501 158.541 13.2236 162.711 12.3548 167.001C11.4897 171.291 11.048 175.622 11.0333 180C11.0296 182.913 11.2247 185.811 11.6112 188.698C14.0114 190.317 16.4521 191.852 18.937 193.303C27.9856 198.744 37.5385 203.093 47.5958 206.346H47.5295ZM87.3057 119.888C90.0667 118.225 92.8939 116.561 95.7874 115.092C93.3026 114.436 90.7919 113.923 88.2518 113.557C85.7118 113.187 83.1569 112.964 80.5911 112.887C78.0216 112.806 75.4594 112.876 72.9009 113.088C70.3424 113.304 67.8023 113.66 65.288 114.165C62.77 114.667 60.2888 115.312 57.8444 116.096C55.4001 116.88 53.0109 117.803 50.6733 118.859C48.3357 119.917 46.0643 121.104 43.8629 122.42C41.6615 123.735 39.5448 125.171 37.5054 126.728C37.5054 129.608 37.1225 132.484 37.0562 135.364C36.9127 145.875 37.9177 156.277 40.0786 166.572C46.0975 157.131 53.0919 148.473 61.0619 140.592C69.0319 132.715 77.7786 125.812 87.3057 119.888ZM135.302 157.618C138.13 159.087 140.957 160.688 143.655 162.351C142.989 159.864 142.183 157.427 141.237 155.035C140.29 152.642 139.208 150.312 137.993 148.044C136.779 145.776 135.435 143.582 133.966 141.468C132.497 139.354 130.914 137.328 129.21 135.393C127.509 133.459 125.702 131.627 123.787 129.901C121.877 128.172 119.87 126.56 117.768 125.061C115.67 123.559 113.491 122.185 111.234 120.936C108.977 119.687 106.655 118.569 104.269 117.584C101.611 118.822 99.0417 120.163 96.5568 121.614C87.2837 126.703 78.7173 132.781 70.8541 139.841C82.1335 140.339 93.2105 142.091 104.092 145.091C114.971 148.096 125.374 152.269 135.302 157.618ZM126.243 227.387C129.368 224.273 132.159 220.888 134.614 217.231C137.069 213.571 139.146 209.71 140.835 205.643C142.529 201.58 143.806 197.388 144.671 193.072C145.533 188.756 145.967 184.4 145.971 180C145.974 177.087 145.779 174.189 145.393 171.302C142.993 169.727 140.552 168.192 138.067 166.697C129.004 161.344 119.451 157.083 109.408 153.91C114.577 163.81 118.578 174.156 121.42 184.946C124.262 195.74 125.867 206.709 126.243 217.858C126.692 221.056 126.692 224.255 126.243 227.387ZM69.6982 240.178C66.9372 241.841 64.11 243.501 61.2165 244.974C63.6977 245.629 66.212 246.139 68.7521 246.509C71.2922 246.879 73.847 247.099 76.4128 247.179C78.9787 247.256 81.5445 247.19 84.103 246.974C86.6615 246.762 89.1979 246.403 91.7159 245.901C94.2339 245.399 96.7151 244.754 99.1595 243.966C101.604 243.182 103.993 242.262 106.331 241.204C108.668 240.145 110.94 238.958 113.141 237.642C115.342 236.327 117.459 234.891 119.495 233.334C119.495 230.458 119.881 227.578 119.948 224.702C120.091 214.187 119.086 203.785 116.925 193.494C110.903 202.921 103.905 211.567 95.9347 219.437C87.9647 227.303 79.2216 234.195 69.6982 240.112V240.178Z" fill="black"/>
</g>
<path d="M163.853 159.311C165.499 158.241 167.27 157.407 169.162 156.808C171.05 156.213 172.9 155.913 174.713 155.913C174.944 155.913 175.198 155.925 175.471 155.944C175.744 155.955 176.138 155.974 176.654 156.004L169.192 190.857C169.928 191.02 170.728 191.29 171.588 191.661C172.445 192.033 173.75 192.685 175.501 193.618C178.118 195.043 180.12 195.984 181.507 196.439C182.903 196.894 184.23 197.121 185.496 197.121C186.232 197.121 186.937 197.053 187.604 196.924C188.272 196.791 188.928 196.598 189.576 196.348C189.311 198.672 188.727 200.522 187.817 201.899C186.914 203.271 185.819 203.961 184.526 203.961C183.362 203.961 182.122 203.643 180.81 203.006C179.494 202.376 177.511 201.011 174.864 198.911C171.82 196.454 169.454 194.846 167.766 194.088C166.087 193.329 164.46 192.95 162.883 192.95C162.587 192.95 162.36 192.95 162.2 192.95C162.037 192.95 161.889 192.965 161.76 192.996L168.995 159.356C166.788 160.266 165.105 161.627 163.944 163.436C162.78 165.248 162.2 167.417 162.2 169.942C162.2 170.561 162.238 171.095 162.322 171.55C162.401 171.998 162.538 172.43 162.731 172.854C162.792 172.987 162.83 173.078 162.852 173.127C162.871 173.169 162.883 173.203 162.883 173.234C161.063 173.234 159.736 172.854 158.909 172.096C158.09 171.338 157.681 170.151 157.681 168.532C157.681 166.917 158.219 165.298 159.303 163.679C160.395 162.063 161.912 160.607 163.853 159.311Z" fill="black"/>
<path d="M187.766 161.1C187.766 162.173 187.386 163.083 186.628 163.83C185.87 164.57 184.952 164.937 183.883 164.937C182.821 164.937 181.915 164.57 181.168 163.83C180.429 163.083 180.061 162.173 180.061 161.1C180.061 160.039 180.429 159.129 181.168 158.37C181.915 157.604 182.821 157.218 183.883 157.218C184.952 157.218 185.87 157.604 186.628 158.37C187.386 159.129 187.766 160.039 187.766 161.1ZM175.39 186.292C175.39 185.879 175.428 185.405 175.496 184.866C175.556 184.332 175.655 183.756 175.784 183.137L179.09 167.561H186.067L182.579 184.063C182.518 184.358 182.465 184.624 182.427 184.866C182.397 185.109 182.381 185.359 182.381 185.61C182.381 186.258 182.533 186.724 182.836 187.005C183.147 187.278 183.659 187.414 184.368 187.414C185.278 187.414 186.135 187.02 186.947 186.231C187.754 185.435 188.35 184.404 188.736 183.137H190.784C189.741 186.08 188.346 188.317 186.598 189.841C184.857 191.358 182.855 192.116 180.592 192.116C178.973 192.116 177.699 191.612 176.77 190.599C175.848 189.58 175.39 188.142 175.39 186.292Z" fill="black"/>
<path d="M204.514 169.791V170.079L205.045 167.561H212.037L207.229 190.084C208.844 189.5 210.114 188.681 211.036 187.627C211.964 186.576 212.734 185.079 213.341 183.137H215.388C214.638 185.594 213.576 187.574 212.203 189.068C210.827 190.554 209.022 191.608 206.789 192.222L206.061 195.711C205.485 198.429 204.468 200.481 203.012 201.868C201.556 203.264 199.661 203.961 197.325 203.961C195.675 203.961 194.356 203.54 193.366 202.702C192.384 201.861 191.895 200.716 191.895 199.26C191.895 197.671 192.547 196.272 193.852 195.058C195.164 193.845 197.15 192.833 199.812 192.025L200.389 189.447C199.547 190.326 198.644 190.994 197.674 191.449C196.703 191.892 195.664 192.116 194.565 192.116C192.563 192.116 190.985 191.441 189.833 190.084C188.68 188.719 188.104 186.793 188.104 184.305C188.104 182.497 188.377 180.605 188.923 178.633C189.476 176.654 190.242 174.853 191.213 173.234C192.415 171.334 193.806 169.874 195.384 168.85C196.968 167.83 198.705 167.319 200.586 167.319C201.848 167.319 202.819 167.539 203.498 167.971C204.173 168.407 204.514 169.013 204.514 169.791ZM204.074 172.126C204.044 171.611 203.85 171.182 203.498 170.837C203.141 170.496 202.671 170.322 202.087 170.322C200.305 170.322 198.728 171.816 197.355 174.796C195.979 177.768 195.293 180.711 195.293 183.623C195.293 184.889 195.467 185.837 195.823 186.474C196.176 187.104 196.809 187.414 197.719 187.414C198.496 187.414 199.266 187.062 200.025 186.353C200.783 185.636 201.306 184.726 201.602 183.623L204.074 172.126ZM199.327 194.452C197.708 195.066 196.51 195.703 195.732 196.363C194.951 197.03 194.565 197.766 194.565 198.577C194.565 198.99 194.724 199.358 195.05 199.684C195.372 200.007 195.763 200.17 196.218 200.17C196.764 200.17 197.295 199.779 197.81 199.002C198.333 198.232 198.739 197.186 199.024 195.862L199.327 194.452Z" fill="black"/>
<path d="M225.143 186.641C225.143 186.057 225.211 185.329 225.355 184.457C225.496 183.577 225.795 182.182 226.25 180.271C226.705 178.432 226.997 177.109 227.13 176.297C227.259 175.49 227.327 174.811 227.327 174.265C227.327 173.457 227.168 172.839 226.857 172.415C226.554 171.99 226.106 171.778 225.522 171.778C224.741 171.778 223.99 172.244 223.262 173.173C222.534 174.094 222.057 175.054 221.837 176.055L218.485 191.828H211.493L218.53 158.825L225.719 157.855L223.096 170.079C223.903 169.18 224.779 168.502 225.719 168.047C226.66 167.592 227.68 167.364 228.783 167.364C230.489 167.364 231.816 167.834 232.757 168.775C233.697 169.715 234.167 171.076 234.167 172.854C234.167 173.594 234.076 174.473 233.894 175.493C233.72 176.517 233.371 178.079 232.848 180.18C232.431 181.829 232.158 182.997 232.029 183.683C231.896 184.362 231.832 184.923 231.832 185.367C231.832 186.057 231.991 186.573 232.317 186.914C232.639 187.248 233.125 187.414 233.773 187.414C234.581 187.414 235.274 187.141 235.851 186.595C236.435 186.042 237.102 184.889 237.853 183.137H239.885C238.854 186.152 237.599 188.4 236.124 189.887C234.656 191.373 232.901 192.116 230.861 192.116C229.049 192.116 227.646 191.627 226.645 190.645C225.644 189.655 225.143 188.321 225.143 186.641Z" fill="black"/>
<path d="M239.547 167.561H241.155L242.611 160.858L249.785 159.887L248.131 167.561H251.043L250.664 169.503H247.752L244.643 184.063C244.582 184.358 244.529 184.624 244.491 184.866C244.461 185.109 244.446 185.359 244.446 185.61C244.446 186.258 244.598 186.724 244.901 187.005C245.212 187.278 245.724 187.414 246.433 187.414C247.343 187.414 248.2 187.02 249.011 186.231C249.819 185.435 250.414 184.404 250.801 183.137H252.848C251.806 186.08 250.41 188.317 248.662 189.841C246.922 191.358 244.92 192.116 242.656 192.116C241.037 192.116 239.763 191.612 238.834 190.599C237.913 189.58 237.454 188.142 237.454 186.292C237.454 185.879 237.492 185.405 237.56 184.866C237.621 184.332 237.72 183.756 237.848 183.137L240.76 169.503H239.153L239.547 167.561Z" fill="black"/>
<path d="M258.176 164.118C258.176 161.624 259.253 159.55 261.407 157.9C263.56 156.255 266.222 155.428 269.399 155.428C271.856 155.428 273.771 155.928 275.148 156.929C276.52 157.93 277.21 159.371 277.21 161.252C277.21 162.708 276.846 163.891 276.118 164.801C275.39 165.703 274.423 166.151 273.221 166.151C272.774 166.151 272.364 166.071 271.993 165.908C271.618 165.749 271.284 165.491 270.992 165.135C271.636 164.752 272.163 164.172 272.569 163.39C272.971 162.613 273.176 161.806 273.176 160.964C273.176 159.925 272.865 159.121 272.251 158.552C271.644 157.987 270.753 157.703 269.581 157.703C268.194 157.703 267.102 158.094 266.305 158.871C265.517 159.652 265.122 160.736 265.122 162.132C265.122 163.265 265.411 164.342 265.987 165.362C266.571 166.375 267.837 167.74 269.779 169.457C272.334 171.694 274.018 173.628 274.829 175.266C275.637 176.896 276.042 178.709 276.042 180.711C276.042 184.404 274.761 187.35 272.205 189.553C269.646 191.748 266.381 192.844 262.408 192.844C259.23 192.844 256.72 192.116 254.87 190.66C253.027 189.204 252.109 187.153 252.109 184.502C252.109 182.167 252.807 180.256 254.202 178.769C255.598 177.283 257.281 176.54 259.253 176.54C260.474 176.54 261.475 176.824 262.256 177.389C263.033 177.958 263.454 178.739 263.515 179.74C261.835 179.74 260.47 180.146 259.42 180.953C258.366 181.765 257.842 182.88 257.842 184.305C257.842 185.663 258.259 186.777 259.101 187.657C259.939 188.529 261.073 188.961 262.499 188.961C264.186 188.961 265.547 188.381 266.578 187.217C267.61 186.057 268.125 184.487 268.125 182.516C268.125 180.991 267.784 179.535 267.109 178.148C266.431 176.752 265.024 174.894 262.893 172.566C260.952 170.496 259.678 168.866 259.071 167.683C258.472 166.5 258.176 165.313 258.176 164.118Z" fill="black"/>
<path d="M290.264 186.641C290.264 186.057 290.333 185.329 290.477 184.457C290.617 183.577 290.916 182.182 291.371 180.271C291.826 178.432 292.118 177.109 292.251 176.297C292.38 175.49 292.448 174.811 292.448 174.265C292.448 173.457 292.3 172.839 292.008 172.415C291.713 171.99 291.273 171.778 290.689 171.778C289.919 171.778 289.203 172.18 288.535 172.976C287.868 173.764 287.326 174.856 286.912 176.252L283.606 191.828H276.614L281.771 167.561H288.748L288.217 170.079C289.024 169.18 289.9 168.502 290.841 168.047C291.781 167.592 292.801 167.364 293.904 167.364C295.611 167.364 296.938 167.834 297.878 168.775C298.818 169.715 299.288 171.076 299.288 172.854C299.288 173.594 299.197 174.474 299.015 175.493C298.841 176.517 298.492 178.079 297.969 180.18C297.552 181.829 297.279 182.997 297.15 183.683C297.017 184.362 296.953 184.923 296.953 185.367C296.953 186.057 297.112 186.573 297.438 186.914C297.76 187.248 298.246 187.414 298.894 187.414C299.702 187.414 300.396 187.141 300.972 186.595C301.556 186.042 302.223 184.889 302.974 183.137H305.006C303.975 186.152 302.72 188.4 301.245 189.887C299.778 191.373 298.022 192.116 295.982 192.116C294.17 192.116 292.767 191.627 291.766 190.645C290.765 189.655 290.264 188.321 290.264 186.641Z" fill="black"/>
<path d="M318.743 169.791V170.14L319.274 167.561H326.266L322.778 184.063C322.706 184.358 322.656 184.624 322.626 184.866C322.596 185.109 322.581 185.359 322.581 185.61C322.581 186.33 322.74 186.861 323.066 187.202C323.388 187.536 323.889 187.703 324.567 187.703C325.405 187.703 326.164 187.308 326.842 186.52C327.529 185.723 328.078 184.593 328.496 183.137H330.543C329.5 186.121 328.154 188.366 326.509 189.871C324.859 191.369 322.948 192.116 320.776 192.116C319.388 192.116 318.281 191.733 317.454 190.963C316.635 190.186 316.157 189.083 316.029 187.657C315.028 189.143 313.92 190.262 312.707 191.009C311.494 191.748 310.189 192.116 308.794 192.116C306.792 192.116 305.215 191.441 304.062 190.084C302.909 188.719 302.333 186.793 302.333 184.305C302.333 182.497 302.606 180.605 303.152 178.633C303.706 176.654 304.472 174.853 305.442 173.234C306.644 171.334 308.036 169.874 309.613 168.85C311.198 167.83 312.935 167.319 314.815 167.319C316.078 167.319 317.048 167.539 317.727 167.971C318.402 168.407 318.743 169.013 318.743 169.791ZM318.304 172.172C318.304 171.687 318.125 171.258 317.773 170.883C317.416 170.511 316.931 170.322 316.317 170.322C314.535 170.322 312.957 171.816 311.585 174.796C310.208 177.768 309.522 180.711 309.522 183.623C309.522 184.889 309.696 185.837 310.053 186.474C310.405 187.104 311.039 187.414 311.949 187.414C312.787 187.414 313.602 187.013 314.391 186.201C315.187 185.393 315.718 184.374 315.983 183.137L318.304 172.172Z" fill="black"/>
<path d="M334.713 186.777C334.834 187.134 335.054 187.411 335.38 187.612C335.703 187.805 336.093 187.9 336.548 187.9C338.588 187.9 340.234 186.592 341.477 183.972C342.721 181.344 343.343 178.299 343.343 174.841C343.343 173.518 343.146 172.517 342.751 171.838C342.364 171.152 341.754 170.807 340.916 170.807C340.34 170.807 339.741 171.031 339.126 171.474C338.508 171.91 337.989 172.483 337.564 173.188L334.713 186.777ZM331.407 202.217L324.081 203.961L332.18 165.772H339.172L338.398 169.412C339.206 168.725 340.074 168.206 341.007 167.849C341.947 167.497 342.967 167.319 344.071 167.319C346.012 167.319 347.483 167.967 348.484 169.26C349.493 170.557 350.001 172.468 350.001 174.993C350.001 179.937 348.939 184.028 346.816 187.263C344.693 190.501 341.769 192.116 338.05 192.116C337.018 192.116 336.154 191.972 335.456 191.691C334.758 191.399 334.247 190.96 333.924 190.372L331.407 202.217Z" fill="black"/>
</svg>
